<?xml version="1.0" encoding="utf-8"?>
<!-- Generator: Adobe Illustrator 27.5.0, SVG Export Plug-In . SVG Version: 6.00 Build 0)  -->
<svg version="1.1" id="Layer_1" xmlns="http://www.w3.org/2000/svg" xmlns:xlink="http://www.w3.org/1999/xlink" x="0px" y="0px"
	 viewBox="0 0 74.7 44.9" style="enable-background:new 0 0 74.7 44.9;" xml:space="preserve">
<style type="text/css">
	.st0{fill:#FFFFFF;}
</style>
<g id="Group_11" transform="translate(-25.846 -19.389)">
	<path id="withCare" class="st0" d="M38.5,53.2C38.5,53.2,38.5,53.2,38.5,53.2c-0.1,0.3-0.2,0.5-0.3,0.7c-0.1,0.1-0.1,0.3-0.1,0.4
		c0,0.1-0.1,0.2-0.1,0.3L37.9,55c-0.3,0.8-0.5,1.5-0.6,2.3c-0.2,1.1-0.6,2.1-0.9,3.1c-0.2-0.1,0-0.1-0.1-0.3c0-0.1,0-0.2-0.1-0.2
		c-0.2-0.7-0.3-1.6-0.6-2.4c-0.1-0.3-0.2-0.3-0.1-0.5c0-0.1-0.1-0.1-0.1-0.2c-0.1-0.2-0.1-0.4-0.2-0.6s-0.1-0.4-0.2-0.7L35,55.5
		c-0.2-0.6-0.3-1.3-0.5-2c0-0.1,0-0.2,0-0.3c-0.4,0-0.7,0-1.1,0.1c-0.4,0-0.7,0-1,0c0.1,0.3,0,0.6-0.1,0.8l-0.3,1
		c-0.2,0.3-0.2,1.6-0.4,1.7c0,0,0,0.1,0,0.1c-0.1,0.7-0.3,1.3-0.4,2c-0.1,0.2-0.1,0.4-0.1,0.5c0,0.1-0.1,0.5-0.2,0.5
		c0,0-0.1,0-0.1,0c-0.2-0.6-0.4-1.2-0.6-1.8c-0.1-0.3-0.2-0.6-0.3-0.9L29.8,57c-0.1-0.2-0.1-0.3-0.2-0.4c-0.1-0.5-0.3-1-0.4-1.5
		c-0.1-0.3-0.1-0.5-0.2-0.8s-0.2-0.5-0.2-0.7c0-0.1,0-0.2-0.1-0.1c-0.1,0-0.1-0.1-0.1,0c-0.4,0-0.8-0.1-1.2-0.1
		c-0.1,0-0.2-0.1-0.3,0c0.1,0.3,0.2,0.6,0.4,0.8l0.2,0.4c0.1,0.3,0.1,0.6,0.2,0.9c0.1,0,0.1,0,0.1,0.1c0.1,0.2,0.1,0.4,0.2,0.5
		c0.2,0.5,0.3,1,0.5,1.5c0.1,0.3,0.2,0.7,0.3,1c0.1,0.4,0.2,0.7,0.3,1.1c0.1,0.5,0.4,1,0.5,1.5c0,0.1,0,0.1,0.1,0.1
		c0.1,0.3,0.2,0.7,0.3,1.1c0,0.1,0,0.2,0.1,0.2c0.4,0,0.8,0.1,1.2,0.1c0.1,0,0,0.1,0.2,0c0.1-0.1,0.3,0,0.3-0.1c0-0.1,0-0.1,0-0.2
		c0.1-0.4,0.2-0.8,0.3-1.3c0.1-0.6,0.3-1.2,0.5-1.8l0.1-0.3c0.1-0.5,0.3-1,0.4-1.5c0.2-0.6,0.3-1.3,0.5-1.9c0.1,0.2,0.1,0.4,0.2,0.7
		c0.1,0.2,0.2,0.4,0.2,0.6c0.1,0.1,0.1,0.3,0.1,0.4c0,0.1,0,0.1,0,0.1c0,0.1,0,0.1,0.1,0.2c0.1,0.6,0.2,1.1,0.4,1.7
		c0,0.1,0,0.1,0.1,0.2c0,0.1,0,0,0,0c0.3,0.9,0.5,2.1,0.8,3.2c0.5,0.1,1.1,0.1,1.6,0c0.1-0.1,0.1-0.2,0.1-0.4
		c0.1-0.2,0.1-0.4,0.2-0.7c0.1-0.7,0.3-1.4,0.6-2c0-0.1,0-0.1,0.1-0.2c0.5-1.7,0.9-3.4,1.5-4.9c0.1-0.2,0.2-0.4,0.3-0.6
		c0-0.1,0.1-0.2,0.2-0.3c0.1-0.1,0.1-0.3,0.1-0.4L38.5,53.2z M43.3,49.6c-0.5,0.1-1,0.1-1.5,0c0,0.1-0.1,0-0.1,0c0,0,0,0.1-0.1,0.1
		c0,0.1,0,0.2,0,0.3c0,0.3,0,0.6,0,1c0,0.1,0,0.3,0,0.5c0,0.1,0,0.2,0.1,0.3c0.2,0,0.3-0.1,0.5-0.1c0.3-0.1,0.7,0.1,1.2,0
		c0-0.1,0-0.4,0-0.4c-0.2-0.5-0.2-1-0.2-1.5C43.3,49.8,43.4,49.7,43.3,49.6L43.3,49.6z M43.3,62.7c0.1-0.2,0.1-0.4,0.1-0.6
		c0-0.6,0-1.2,0-1.8c-0.1-0.1,0.1-0.3,0-0.5c0.1-0.1,0-0.3,0-0.4c0-0.1,0-0.2,0-0.3c-0.1-0.1,0.1-4.3,0-5.7
		c-0.2-0.2-0.4-0.1-0.6-0.1c-0.1,0-0.2,0-0.3,0l-0.3,0.1c-0.2-0.1-0.5-0.2-0.6,0c0,0,0,0,0,0c0,0.8,0.1,1.7,0,2.5c0,0.2,0,0.5,0,0.7
		c0.1,0.8,0.1,1.6,0,2.4c0,0.2-0.1,0.4-0.1,0.6c0,0.5,0,1,0,1.5c0,0.4,0,0.7,0.1,1.1c0,0.2,0,0.5,0.1,0.7
		C42.2,62.8,42.8,62.7,43.3,62.7L43.3,62.7z M44.6,54.8c0,0,0.2,0.1,0.1,0c0.3-0.1,0.6-0.1,1-0.1c0.1,0.1,0.3,0,0.5,0.1
		c-0.1,0.4-0.1,2.5-0.1,2.6c0,0.2,0,0.3,0,0.5c0,0.2,0,0.3,0,0.5c0,0.8,0,1.6,0.1,2.4c0.1,0.3,0,0.5,0.1,0.7c0,0.1,0,0.2,0.1,0.3
		c0.1,0.2,0.3,0.3,0.5,0.4c0.2,0.1,0.5,0.2,0.7,0.4c0,0,0.1,0,0.1,0c0.2,0.1,0.4,0.2,0.6,0.2c0.4,0,0.7,0,1.1,0.1
		c0.1-0.1,0.4,0,0.5-0.1c0,0,0,0,0,0c0-0.3,0-0.5,0-0.8c-0.1-0.1,0-0.5,0-0.6c-0.4-0.2-1.2,0.1-1.5-0.2c0-0.1,0,0-0.1-0.1
		c-0.1,0,0,0-0.1-0.1c0-0.1,0-0.1,0-0.2c0-0.1,0-0.1,0-0.1c-0.1-0.5-0.1-0.9-0.1-1.4c0-0.6,0-1.2,0-1.9c0-0.8,0-1.7,0-2.7
		c0.2-0.1,0.4-0.1,0.6,0c0.1,0,0.1,0.1,0.1,0.1s0.1-0.1,0.2-0.1c0.1,0,0.1,0.1,0.1,0.1c0.3-0.1,0.5-0.1,0.8,0c0.1-0.2,0-0.5,0-0.7
		c-0.1-0.2,0-0.6-0.1-0.9c-0.2-0.1-0.4,0-0.7,0.1c-0.1,0-0.3,0-0.5,0c0,0-0.1,0-0.1-0.1c-0.1,0.1-0.3,0.1-0.4-0.1
		c-0.1-0.5-0.1-1.1-0.1-1.6c0-0.3,0-0.7,0-1c-0.2-0.1-0.5,0.1-0.7-0.1c-0.2,0.1-0.6,0-0.9,0c-0.1-0.1-0.1,0-0.2,0c0,0.1,0,0-0.1,0.1
		c0.2,0.2,0,0.5,0,0.8c0,0.1,0.1,0.1,0.1,0.1l0,1.7c-0.4,0.2-1.1,0-1.5,0.1c0,0,0,0.1,0,0c0.1,0.2,0.1,0.4,0.1,0.6
		c0,0.1-0.1,0.3-0.1,0.4c0,0.1,0.1,0.1,0.1,0.2C44.6,54.6,44.6,54.6,44.6,54.8z M53.4,49.6c-0.5-0.1-1,0.1-1.5,0
		c-0.1,0,0-0.1-0.1-0.1c-0.2,0.2-0.1,0.6-0.2,0.9c0.1,0.3,0.2,0.6,0.1,1c0.1,0.1,0.1,0.3,0.1,0.5c0,0.7,0.1,2.2,0.1,2.7
		c0,0.6,0,1.3-0.1,2.1c0,0.4-0.1,0.7-0.1,1.1c0,0.4,0,0.8,0,1.2c0,0.2,0,0.3-0.1,0.4c0.1,0.2,0.1,0.5,0.1,0.7c0,0.3,0,0.5,0,0.7
		c0.1,0.5,0.1,0.9,0,1.4c0.1,0.2,0.1,0.5,0.1,0.6c0.6,0,1.4,0.1,1.9,0c0.1-0.1-0.1-0.1-0.1-0.2c-0.1-1-0.1-2.1,0-3.2
		c0-0.1,0,0,0-0.1c0.1-1.2-0.2-2.6,0.3-3.6c0.3-0.4,0.7-0.8,1.2-1c0.5-0.2,1-0.3,1.4-0.2c0,0.1,0.1,0,0.1,0c0.1,0,0,0,0.1,0
		c0.1,0,0.3,0.1,0.4,0.1c0.2,0.2,0.4,0.4,0.6,0.7c0,0.1,0.1,0.1,0.1,0.1c0,0.1,0,0,0,0.1c0.2,0.5,0.3,1.1,0.3,1.6c0,0,0.1,0,0,0.1
		c0.1,1.1,0.1,2.1,0.1,3.2c0,0.1,0,0.2,0,0.3c0,0.1-0.1,0.1,0,0.1c0,0.6-0.2,1.4-0.1,2c0.1,0.1,1.2-0.1,1.4,0c0.1,0,0.1,0,0.2,0
		c0.1-0.1,0-0.3,0-0.5c0-0.5,0-1.1,0-1.6c0.1-0.7,0.1-1.4,0.1-2.1c0-0.4-0.1-0.8-0.1-1.3c0-0.1,0-0.2,0-0.3c0-0.1,0-0.3,0-0.4
		c0-0.1,0-0.1,0-0.2c0-0.2-0.1-0.4,0-0.6c-0.1-0.1-0.1-0.2-0.1-0.4c0-0.1-0.1-0.4-0.1-0.6c0-0.1,0-0.1-0.1-0.2
		c-0.1-0.5-0.3-0.9-0.7-1.3c-0.3-0.1-0.7-0.4-1-0.5c-0.3-0.1-0.6-0.1-0.9-0.1c-0.3,0-0.7,0-1,0.1c-0.4,0.1-0.7,0.3-1.1,0.5
		c-0.3,0.2-0.6,0.5-1,0.7c-0.1-0.4,0-0.7,0-1.1c0-0.3-0.1-0.5-0.1-0.7c0-0.2,0-0.4,0-0.7c-0.1-0.3-0.1-0.7-0.1-1
		C53.4,50.3,53.5,49.9,53.4,49.6L53.4,49.6z M67.2,53.1c-0.2,0-0.4-0.1-0.7,0c-0.2,0-0.4,0-0.7,0c-0.1,0-0.1,0.1-0.2,0.1
		c-0.4,0-0.7,0.1-1,0.3c-0.2,0-0.4,0.1-0.5,0.1c-0.1,0.1-0.3,0.1-0.4,0.2c0,0-0.1,0-0.1,0c-0.2,0.1-0.3,0.2-0.4,0.4
		c-0.1,0.1-0.3,0.3-0.4,0.5c-0.2,0.2-0.3,0.4-0.4,0.6l-0.1,0.3c0,0,0,0,0,0c0,0.1-0.1,0.2-0.1,0.3c-0.3,0.5-0.7,0.8-0.5,1.4
		c0,0.1,0,0.2,0,0.3c0,0.1,0,0.2-0.1,0.3c0,0.3,0,0.8,0,1c0,0.2,0,0.6,0,0.5c0.2,0.7,0.5,1.3,0.9,1.9c0,0.1,0,0.1,0,0.1
		c0,0,0,0.1,0.1,0.1c0.1,0.2,0.3,0.4,0.5,0.6l0.2,0.2c0,0,0,0.1,0.1,0.1c0,0,0.1,0,0.1,0c0,0,0.1,0.1,0.1,0.1
		c0.1,0.1,0.1,0.1,0.2,0.1c0.1,0.1,0.1,0.1,0.2,0.2c0.1,0,0.2,0.1,0.2,0.1c0.4,0.2,0.9,0.3,1.4,0.3c0,0,0,0.1,0.1,0.1
		c0.1,0,0.3-0.1,0.4,0c0.4,0,0.8,0,1.1-0.1c0.3,0,0.6-0.1,0.8-0.2c0.8-0.1,1.5-0.4,2-0.9c0.2-0.2,0.4-0.5,0.5-0.8
		c0-0.2,0.1-0.3,0.2-0.5c0-0.4,0.1-0.7,0.2-1.1c0-0.1-0.1-0.2-0.1-0.2l-0.2,0.1c-0.3-0.1-0.6-0.1-0.9,0c-0.5,0-0.9-0.1-1.4-0.1
		c-0.1,0.2-0.2,0.4-0.3,0.6c0,0.1-0.1,0.2-0.1,0.4c-0.1,0.2-0.3,0.4-0.5,0.5c0,0-0.2,0.1-0.3,0.1c-0.3,0.2-0.7,0.3-1,0.2
		c-0.1,0.1-0.2,0-0.4,0l-0.1-0.1c0,0,0,0-0.1,0c-0.2-0.1-0.3-0.3-0.5-0.5c-0.1-0.1-0.3-0.2-0.3-0.4c0-0.1,0-0.1,0-0.1
		c0,0,0-0.1,0-0.1c-0.2-0.5-0.3-1-0.3-1.5c0-0.1,0-0.3,0-0.4c0.1-0.5,0.2-1,0.4-1.5c0.1-0.1,0.2-0.3,0.3-0.4c0,0,0.1,0,0.1-0.1
		c0.1-0.1,0.1-0.2,0.2-0.2c0.1-0.1,0.2-0.1,0.2-0.2c0.1-0.1,0.2-0.2,0.2-0.2c0.1-0.1,0.3-0.1,0.4-0.2c0.2,0,0.3,0,0.5,0
		c0.3,0,0.5,0.1,0.7,0.3c0,0.1,0.1,0,0.1,0.1c0.1,0,0,0.1,0.1,0.1c0.2,0.1,0.3,0.3,0.4,0.5c0,0,0,0.1,0,0.1c0,0,0,0.1,0,0.1
		c0,0.2,0,0.4,0.1,0.6c0.2,0,0.4,0,0.6,0l0.6,0.1c0.1,0,0.2,0.1,0.4,0.1c0.4,0,0.4,0.1,0.8,0.1c0,0,0.2,0,0.3,0c0.1,0-0.1-0.1,0-0.1
		c0.1-0.1,0-0.3,0-0.4c0-0.2,0-0.5,0-0.7c-0.1-0.5-0.4-1-0.8-1.4l-0.5-0.6c-0.1,0-0.3-0.1-0.4-0.2c-0.3-0.1-0.6-0.2-0.9-0.3
		C67.9,53.2,67.5,53.1,67.2,53.1z M81.1,57.5c-0.1-0.4,0-0.8,0-1.2c0-0.6,0-1.2-0.1-1.8c-0.1-0.3-0.2-0.5-0.4-0.7
		c-0.4-0.4-0.9-0.7-1.4-0.9c-0.4-0.1-0.8-0.1-1.1-0.1c-0.2,0-0.4,0-0.6-0.1c-0.3,0-0.6,0-0.9,0c-0.1,0-0.1,0-0.2,0.1L75.7,53
		c-0.3,0.1-0.5,0.2-0.8,0.3c-0.2,0.2-0.5,0.2-0.7,0.5c-0.6,0.4-1.1,1-1.4,1.6c-0.1,0.3-0.2,0.7-0.3,1c0.1,0.1,0.1,0,0.2,0
		c0.1,0,0.2,0,0.3,0.1c0.1-0.1,0.3,0,0.4,0c0.1,0,0.2,0,0.3,0c0.1,0,0.2,0,0.3,0c0.2,0,0.5,0,0.7,0c0.2,0.1,0.5,0.1,0.7,0
		c0.1-0.2,0.2-0.4,0.3-0.6c0.1-0.1,0.2-0.3,0.3-0.4c0.2-0.1,0.5-0.3,0.8-0.3c0.2,0,0.4-0.1,0.6-0.1c0.3,0,0.5,0.1,0.8,0.2
		c0.4,0.3,0.6,0.8,0.4,1.3c0,0,0.1,0,0.1,0.1c-0.1,0.2,0,0.5-0.3,0.4c-0.1,0-0.2,0-0.3,0.1c-0.5,0.2-0.9,0.2-1.4,0.2
		c-0.1,0-0.1,0-0.1,0.1c-0.3,0-0.5,0-0.8,0l-0.3,0c-0.1,0-0.1,0-0.1,0c-0.1,0.1-0.2,0.1-0.3,0.1c-0.3,0.1-0.6,0.1-0.8,0.2
		c-0.1,0-0.2,0.1-0.2,0.1c-0.1,0.1-0.2,0.1-0.4,0.2c-0.2,0.2-0.3,0.3-0.5,0.5c-0.1,0.1-0.1,0.3-0.3,0.4c0,0.2-0.2,0.4-0.3,0.6
		c0,0.1-0.1,0.3-0.1,0.4c-0.1,0.3-0.1,0.7,0,1c0.1,0.3,0.2,0.7,0.3,1c-0.1,0.2,0.1,0.2,0.2,0.3c0.1,0.2,0.2,0.3,0.4,0.4
		c0.1,0,0,0,0,0c0.1,0.1,0.3,0.2,0.4,0.3c0.6,0.3,1.3,0.5,1.9,0.5l0.6-0.1c0.4,0,0.8-0.1,1.2-0.2c0.3-0.1,0.6-0.2,0.8-0.4
		c0.1,0,0.1,0,0.1,0c0,0,0-0.1,0.1-0.1c0.2-0.1,0.3-0.2,0.4-0.2c0.1,0.2,0.1,0.5,0.2,0.7c0.2,0,0.4,0,0.5,0l0.3,0.1
		c0.6,0,1.3-0.1,1.9-0.3c0-0.2-0.1-0.4-0.1-0.6c-0.2-0.7-0.3-1.5-0.3-2.2c0,0,0-0.1,0-0.2L81.1,57.5z M77.9,58.7
		c0.1,0,0.4,0,0.4-0.1c0,0,0,0,0,0c0.1,0.3,0.1,0.7,0,1c0,0.4-0.2,0.8-0.5,1.2c-0.1,0.1-0.3,0.2-0.4,0.2c-0.3,0.2-0.5,0.3-0.8,0.3
		c-0.5,0-1-0.2-1.4-0.5c0-0.1-0.1-0.1-0.1-0.2c-0.2-0.4-0.1-0.8,0.2-1.1c0,0,0.1,0,0.1-0.1c0.1,0,0.1-0.1,0.1-0.1
		c0.2-0.1,0.4-0.1,0.5-0.2c0.2,0.1,0.2-0.1,0.4-0.1c0.2-0.1,0.4-0.1,0.5-0.1C77.4,58.7,77.6,58.7,77.9,58.7L77.9,58.7z M84.9,53.2
		c-0.1,0.1-0.2,0.1-0.3,0c-0.3,0.1-0.8-0.1-1,0c-0.1,0,0,0.1-0.1,0c0.1,1.1,0.1,2.3,0,3.4c0,0.2,0,2.1,0,2.1
		c-0.2,0.3,0.2,2.5-0.1,2.6c0,0,0.1,0,0.1,0.1c0,0.2,0,0.4,0,0.7c0,0.3-0.1,0.5,0,0.6c0,0,0,0.1,0,0.1c0.6,0.1,1.2,0.1,1.8,0
		c0.3,0,0.6,0,0.8,0.1c0.1-0.1,0.1-0.2,0-0.3c0-0.1,0-0.2,0-0.3c0-0.2,0-0.5-0.1-0.7c0-0.5,0-1,0.1-1.5c0-0.2,0-0.3,0-0.5
		c0-0.3,0-0.6,0-0.9c0-0.1,0-0.3,0-0.4c0-0.1,0.1-0.1,0.1-0.2c0-0.1,0-0.3,0-0.4c0.1-0.1,0.1-0.4,0.1-0.6c0,0,0.1-0.1,0.1-0.1
		c0-0.1,0-0.1,0-0.2c0-0.1,0.1-0.1,0.2-0.2c0.1-0.1,0.1-0.2,0.2-0.3c0.4-0.3,1-0.5,1.5-0.5c0.1,0,0.3,0,0.4,0c0.2-0.1,0.4,0.1,0.6,0
		c0.1-0.1,0-0.2,0-0.3c0-0.2-0.1-0.5-0.1-0.7c0-0.1,0-0.2-0.1-0.3c0-0.4,0.1-0.8,0.1-1.1C89.3,53,89.2,53,89.1,53
		c-0.1,0-0.2,0-0.3,0c-0.2,0-0.4,0-0.6,0.1c-0.2,0-0.3,0-0.5,0.1c0,0-0.1,0-0.1,0c-0.2,0.1-0.3,0.2-0.5,0.3l-0.3,0.3
		c-0.1,0.1-0.3,0.2-0.4,0.3c-0.1,0.1-0.3,0.2-0.4,0.3c0-0.4,0-0.8-0.1-1.2L84.9,53.2z M94,53.1c-0.4,0.1-0.8,0.2-1.1,0.3
		c-0.6,0.3-1.1,0.7-1.5,1.1C91.3,54.9,91,55,91,55.2c-0.4,0.7-0.7,1.5-0.9,2.3c0,0.2,0,0.3,0,0.5c0,0.2,0,0.4-0.1,0.5
		c0.1,0.1,0.1,0.3,0.1,0.5c0,0.2,0.2,0.4,0.2,0.6c0.3,0.5,0.5,1.5,1.1,1.9c0.3,0.4,0.7,0.7,1.1,0.9c0.3,0,0.6,0.2,0.9,0.3
		c1,0.2,2,0.3,3,0.1c0.2-0.1,0.5-0.1,0.7-0.3c0.1,0,0.3-0.1,0.3-0.2c0.3-0.1,0.5-0.2,0.8-0.4c0.2-0.1,0.4-0.3,0.5-0.5
		c0,0,0-0.1,0.1-0.1l0.2-0.2c0.2-0.4,0.3-0.7,0.4-1.1c0.1,0,0.1-0.1,0.1-0.2c0,0,0-0.1-0.1-0.1c-0.4,0-0.9,0-1.3-0.1
		c-0.3,0-0.7,0.2-1.1,0.2c0,0.1,0,0.1,0,0.2c-0.2,0.3-0.5,0.5-0.8,0.6c-0.4,0.1-0.9,0.1-1.3,0.2c-0.3,0-0.7,0-1-0.1
		c-0.2-0.1-0.5-0.5-0.6-0.6c-0.1-0.1-0.3-0.3-0.2-0.5c0,0-0.1,0-0.1-0.1c-0.1-0.3-0.1-0.5,0-0.8c0.6,0,1.2,0,1.8,0
		c0.2,0,0.5,0,0.7,0c0.2,0,0.5,0,0.7,0l0.4-0.1c0.3,0,0.6-0.1,0.9-0.1c0.2,0,0.4,0,0.6,0c0.5,0.1,1,0.1,1.4,0c0.1-0.3-0.1-0.7-0.1-1
		c-0.1,0.2,0-0.3,0-0.3c-0.1-1.1-0.5-2.1-1.2-2.9c-0.2-0.3-0.4-0.6-0.7-0.8c-0.4-0.2-0.7-0.4-1.1-0.5c0,0-0.1,0-0.1,0
		c0-0.1-0.1,0-0.1-0.1c-0.1,0-0.2,0-0.2-0.1L94,53.1z M96.5,55.9c0.1,0.3,0.2,0.5,0.3,0.8c-0.5,0.4-1.1-0.2-2.8,0.1
		c-0.1,0-0.1,0-0.2,0c-0.2,0-0.4,0-0.6-0.1c-0.1,0-0.2,0.1-0.3,0c0.1-0.3,0.2-0.5,0.3-0.8c0.1-0.1,0.2-0.3,0.3-0.3l0.2-0.1
		c0.1,0,0.1-0.1,0.2-0.1c0.1,0,0.2-0.1,0.4-0.1c0.4-0.1,0.7-0.1,1.1,0c0.2,0,0.4,0.1,0.6,0.2C96.2,55.7,96.4,55.7,96.5,55.9
		L96.5,55.9z"/>
	<path id="Lend" class="st0" d="M27,34c0,0.8,0,1.5-0.2,2.3c0.1,0.1,0.1,0.3,0.1,0.4c0-0.1,0-0.1,0,0c0,0.2,0,1.7,0,5.9
		c0,0.2,0,0.3,0,0.5c0,0.2,0.1,0.4,0.2,0.5c1,0.1,2,0.1,3,0.1c0,0.1,2.1-0.1,2.2-0.1c1-0.1,1.6,0.1,2.2,0c0.3,0,0.7,0,1,0
		c0.2,0,0.3,0.1,0.5,0.1c0,0,0.1-0.1,0.1-0.1c0.1,0,0.1,0.1,0.2,0.1c0.2,0,0.7,0,1-0.1c0.8,0.1,1.9,0.1,2.8,0.3c0.3,0,0.5,0,0.8,0
		c0.7,0.1,1.5,0,2.2-0.2c0.1,0,0.2,0,0.4,0c0.2-0.2,0-0.8-0.1-1.1c-0.1-0.7-0.1-1.5,0-2.2c0-0.3,0-0.6-0.1-0.9
		c-0.1-0.2-0.7-0.2-1-0.2c-0.7,0-1.3,0-1.9,0c-0.1,0.2-3-0.1-3.5,0.2c-0.3,0-0.6-0.1-0.9-0.1c-0.5,0-1-0.1-1.5-0.3
		c-0.7,0-1.4,0-2.2,0.1c0-0.1,0-0.2-0.1-0.3c0-0.2,0-0.5-0.1-0.7h0.1c0.1-2.1-0.2-3.7-0.2-5.8c0.1-0.5,0.1-1,0-1.5
		c0.2-1.2,0.1-2.5,0.2-3.8c0-0.4,0-0.8,0-1.2c0-1.2,0.2-2.3,0.2-3.5c0-0.6-0.1-1.2-0.2-1.8c-0.5-0.2-1.1,0.1-1.5-0.1
		c-0.6,0.1-1.2,0.1-1.8,0.1c-0.1,0-0.1-0.1-0.2-0.1c-0.4,0.2-1-0.1-1.6,0c-0.3,0.1-0.1,0.5-0.1,0.7c0,0.5-0.1,1.2-0.1,1.8
		c0,0.4,0.2,5.5,0.1,5.5c0,0.1,0.1,0.1,0.1,0.2L27,34z M51.7,26.6c-0.7,0.1-1.4,0.3-2,0.5c-1,0.5-1.9,1.2-2.7,2
		c-0.2,0.5-0.6,0.6-0.7,1.2c-0.9,1-1.1,2.7-1.6,4c0,0.3,0,0.6-0.1,0.9c0.1,0.3,0,0.7-0.1,1c0.3,0.2,0.1,0.6,0.2,0.9
		c0.1,0.4,0.3,0.7,0.3,1.1c0.6,1,0.9,2.6,1.9,3.4c0.6,0.7,1.2,1.2,2,1.5c0.5,0.1,1.1,0.4,1.6,0.5c1.5,0.6,3.6,0.3,5.2,0.1
		c0.4-0.2,0.9-0.2,1.2-0.5c0.2,0,0.5-0.2,0.6-0.4c0.5-0.2,0.9-0.4,1.4-0.7c0.3-0.2,0.6-0.5,0.9-0.9c0-0.1,0-0.2,0.1-0.2l0.3-0.3
		c0.4-0.6,0.6-1.3,0.7-2c0.1,0,0.2-0.2,0.1-0.3c0-0.1-0.1-0.1-0.1-0.1c-0.8,0-1.5-0.1-2.3-0.2c-0.6,0-1.2,0.3-1.9,0.3
		c0,0.1,0,0.2,0,0.4c-0.4,0.5-0.9,0.9-1.5,1.1c-0.7,0.2-1.5,0.2-2.3,0.4c-0.6,0-1.2,0-1.7-0.2c-0.4-0.2-0.9-0.9-1.1-1
		c-0.2-0.3-0.5-0.5-0.4-0.9c0-0.1-0.1-0.1-0.2-0.1c-0.1-0.5-0.2-0.9,0-1.4c1.1,0,2.2,0,3.3-0.1c0.4-0.1,0.9-0.1,1.3-0.1
		c0.4,0,0.8,0.1,1.2,0l0.7-0.1c0.5-0.1,1-0.1,1.5-0.1c0.4,0,0.7,0,1.1,0c0.8,0.1,1.7,0.1,2.5,0c0.2-0.5-0.2-1.3-0.1-1.7
		c-0.1,0.3,0-0.5-0.1-0.5c-0.3-2-0.8-3.9-2.1-5.1c-0.4-0.5-0.8-1-1.3-1.5c-0.6-0.4-1.3-0.6-2-0.8c0,0-0.1,0-0.2,0
		c0-0.1-0.2-0.1-0.2-0.1c-0.1,0-0.3,0-0.4-0.1L51.7,26.6z M56,31.5c0.3,0.5,0.4,0.9,0.5,1.5c-0.9,0.7-1.9-0.3-4.9,0.1
		c-0.1,0-0.2,0.1-0.3,0.1c-0.4,0-0.7-0.1-1.1-0.1c-0.2,0-0.4,0.1-0.6,0.1c0.1-0.5,0.3-1,0.5-1.4c0.1-0.2,0.4-0.6,0.6-0.6l0.4-0.2
		c0.1-0.1,0.2-0.1,0.3-0.2c0.2-0.1,0.4-0.1,0.6-0.2c0.6-0.3,1.3-0.3,1.9,0c0.4,0.1,0.7,0.2,1.1,0.4C55.5,31.1,55.8,31.2,56,31.5
		L56,31.5z M79.3,29.6c-0.4-1.1-1.2-2.1-2.2-2.7c-0.3-0.2-0.6-0.4-0.9-0.4c-0.6-0.2-1.2-0.3-1.8-0.4c-0.6-0.1-1.2-0.1-1.9,0
		c-0.9,0.2-1.7,0.6-2.5,1.2c-0.5,0.2-0.8,0.8-1.3,1c-0.2-0.3,0.1-1.4-0.3-1.6c-0.8,0-1.5,0-2.3-0.2c-0.6,0.1-1.3,0.2-1.9,0.2
		C64,28.1,63.9,29.5,64,31c0,0.1,0,2,0,2.1c0,1.1,0.1,2.5,0.1,4.1c0,0.1,0,1.2,0,1.3c0,1.1,0,2.2,0.2,3.2c0,0.1,0,0.2,0,0.3
		c0,0.1-0.1,0.1-0.1,0.2c0,0.3,0.1,0.5,0,0.8c-0.1,0.2-0.1,0.4-0.2,0.6c0.3,0.3,0.7,0.1,1.1,0.1c0.5,0,1.1,0,1.7,0.1
		c0.6,0,1.3-0.1,1.8-0.1c0.1,0,0.3,0.1,0.4,0c0-0.1-0.1-0.2-0.2-0.4c-0.1-0.4-0.1-0.9,0-1.4c0.1-1.2,0-2.3,0-3.4
		c0-0.7-0.3-3.9-0.1-4.5c0.1-0.4,0.2-0.7,0.3-1.1l0.1-0.4c0.1-0.7,0.5-1.3,0.9-1.8c0.6-0.6,1.5-0.9,2.3-0.9c1.8-0.1,2.2,1.2,2.6,2.6
		c-0.2,0.2,0.3,2.6,0.2,3c0,0.1-0.2,0.1-0.2,3.4c0,1.5,0.1,2.5,0,4.1c-0.1,0-0.2,0-0.2,0.1c0,0.1,0.2,0.1,0.2,0.3
		c-0.1,0.1-0.1,0.2-0.1,0.3c0.4,0.1,0.9,0.2,1.4,0.1c0.5,0,1,0,1.5,0.1c0.1,0,0.3,0.1,0.4,0.1c0.1,0,0.2-0.1,0.3-0.1
		c0.5-0.1,0.9,0,1.3,0c0.2-1.9,0.3-3.8,0.2-5.7c0-0.5,0-1,0-1.5c0-0.6,0-1.3,0-2C79.9,33.1,79.7,31.4,79.3,29.6z M99.1,20.6
		c-0.1,0-0.1,0.1-0.2,0.2c-0.4,0.1-0.7,0.1-1.1,0.1c-0.4,0-0.9,0.1-1.2-0.2c-0.4,0.1-0.6-0.1-1-0.2c-0.4,0-0.8-0.3-1.1-0.1
		c0,0.6,0,1.1,0.1,1.7c0,0.3-0.4,5.6-0.3,5.7c-0.4-0.3-0.8-0.5-1.2-0.7c-0.5-0.2-1-0.3-1.5-0.4c-0.3-0.1-0.6-0.3-1-0.4
		c-0.7-0.2-1.5-0.2-2.2,0.1c-0.1-0.1-0.5,0.1-0.7,0c-0.6,0.3-1.2,0.3-1.8,0.6c-0.1,0,0.1,0,0,0.1c-0.1,0-0.1,0.1-0.3,0.1
		c-0.2,0.3-0.5,0.4-0.7,0.6c0,0,0.1,0,0,0c-0.1,0.2-0.3,0.3-0.5,0.4c0,0.1,0,0.1,0,0.1c-0.1,0-0.1,0-0.1,0c-0.1,0.3-0.5,0.4-0.5,0.7
		c0,0,0,0-0.1,0c-0.2,0.3-0.4,0.6-0.5,0.9c0,0.1,0,0.2-0.1,0.3l-0.1,0.2c0,0.5-0.4,1-0.4,1.4c-0.1,0.2-0.2,0.4-0.2,0.7
		c0,0.1-0.2,0.4-0.1,0.6c-0.1,0.2-0.1,0.6-0.1,0.9c0.1,0.4,0,0.7,0,1.1c0,0.1,0.1,0.2,0.1,0.3c0,0.4-0.1,0.8,0,1.2
		c0.3,0.8,0.4,1.7,0.5,2.6c0.5,0.5,0.6,1.1,1,1.6c0.1,0.1,0.2,0.2,0.3,0.4c0.4,0.5,0.8,0.9,1.4,1.3c0,0.1,0.2,0.1,0.2,0.3
		c0.4,0.3,0.9,0.5,1.2,0.7c0.5,0.2,1.2,0.3,1.9,0.5c0.2,0.1,0.5,0.2,0.8,0.2c1.1,0.1,2.3-0.1,3.3-0.6c0.1,0,0.1,0,0.1,0
		c0.2-0.3,0.5-0.3,0.8-0.5c0.3-0.4,0.6-0.7,0.9-1c0.1,0.1,0,0.2,0,0.3c0.3,0.3,0.1,1,0.2,1.3c1,0.2,2,0.2,3-0.1
		c0.3,0.1,0.5,0,0.7-0.1c0.3-0.1,0.7,0,0.9-0.2c0-2.1-0.2-3.8-0.2-5.6c0-0.6,0-1.3,0-2c0-0.4,0.1-0.9,0.1-1.2c-0.1-0.5,0-1,0.1-1.5
		c0-0.1-0.1-0.1,0-0.2l0.2-5.9v-0.3C99.2,24.7,99.8,21.2,99.1,20.6L99.1,20.6z M90.9,30.1c0.3,0,0.6,0.1,0.9,0.2
		c0.1,0.1,0.1,0,0.2,0.1c0.1,0,0.3,0.1,0.4,0.1c0.3,0.2,0.7,0.5,1,0.7v0.1c0.5,0.2,0.6,0.6,0.7,1.1c0,0.1,0.1,0.1,0.1,0.1
		c0.2,0.8,0.3,1.5,0.4,2.3l-0.1,0.2c0.1,0.3-0.1,1.3-0.1,1.5c0,0.1-0.2,0.8-0.2,0.9c-0.1,0.4-0.3,0.6-0.4,1.1
		c-0.2,0.2-0.3,0.3-0.4,0.5c-0.1,0.1-0.2,0.1-0.2,0.2c0,0.1,0,0.1-0.1,0.2c-0.1,0.1-0.1,0.2-0.2,0.3c-0.2,0.2-0.6,0.6-1,0.5
		c-0.2,0-0.2,0.2-0.5,0.2c-0.1,0-0.2,0.1-0.3,0c-0.2,0.1-0.2,0-0.4,0c-0.6,0-1.3-0.2-1.8-0.5c0,0,0-0.1-0.1-0.2
		c-0.3,0-0.5-0.3-0.6-0.6c0-0.1-0.1,0.1-0.1-0.1c-0.1-0.1,0-0.2-0.1-0.2c-0.2-0.5-0.4-1-0.5-1.5c-0.4-0.9-0.6-1.9-0.4-2.9
		c0.2-1.2,0.7-2.3,1.4-3.3c0.3-0.3,0.6-0.5,0.9-0.6c0.3-0.1,0.6-0.2,1-0.3C90.7,30.2,90.8,30.1,90.9,30.1L90.9,30.1z"/>
</g>
</svg>
